<svg xmlns="http://www.w3.org/2000/svg" width="900" height="1200" viewBox="0 0 900 1200"><path d="M240 672a210 210 0 0 1 420 0" fill="none" stroke="#39B9B2" stroke-width="9" stroke-linecap="round" stroke-linejoin="round" opacity="0.5"/><path d="M305 672a145 145 0 0 1 290 0" fill="none" stroke="#508BF0" stroke-width="7" stroke-linecap="round" stroke-linejoin="round" opacity="0.36"/><g transform="translate(180 504) scale(0.62)"><circle r="42" fill="#39B9B2" stroke="#211923" stroke-width="7" stroke-linecap="round" stroke-linejoin="round"/><circle cx="-13" cy="-13" r="9" fill="#FFF9F2" opacity=".8"/></g><g transform="translate(702 480) scale(0.57)"><path d="M-42 12 31-32c9-5 17 4 12 13L3 54c-4 8-15 8-18 0l-8-28-18-8c-9-4-8-14-1-18Z" fill="#E45CA4" stroke="#211923" stroke-width="7" stroke-linecap="round" stroke-linejoin="round"/></g><g transform="translate(180 804) scale(0.54)"><rect x="-42" y="-42" width="38" height="38" rx="8" fill="#F1B640" stroke="#211923" stroke-width="6" stroke-linecap="round" stroke-linejoin="round"/><rect x="2" y="-42" width="38" height="38" rx="8" fill="#F1B640" stroke="#211923" stroke-width="6" stroke-linecap="round" stroke-linejoin="round"/><rect x="2" y="2" width="38" height="38" rx="8" fill="#F1B640" stroke="#211923" stroke-width="6" stroke-linecap="round" stroke-linejoin="round"/></g><g transform="translate(711 792) scale(0.54)"><path d="M0-46 42-26v30c0 27-17 43-42 56-25-13-42-29-42-56v-30Z" fill="#508BF0" stroke="#211923" stroke-width="7" stroke-linecap="round" stroke-linejoin="round"/></g><g transform="translate(324 336) scale(0.48)"><path d="M-46 42V-12h28v54M-10 42v-72h36v72m8 0V-2h22v44Z" fill="#4BCB83" stroke="#211923" stroke-width="7" stroke-linecap="round" stroke-linejoin="round"/></g><g transform="translate(585 324) scale(0.48)"><path d="M-34 38c7-24 13-42 29-61l-8-19c31 7 51 25 56 49L24 19l20 19Z" fill="#8656CF" stroke="#211923" stroke-width="7" stroke-linecap="round" stroke-linejoin="round"/></g></svg>
