<svg xmlns="http://www.w3.org/2000/svg" width="1920" height="1080" viewBox="0 0 1920 1080"><path d="M-60 410C480 194 1056 626 1980 324" fill="none" stroke="#39B9B2" stroke-width="14" stroke-linecap="round" stroke-linejoin="round" opacity=".48"/><path d="M-60 713C499 886 1152 432 1980 734" fill="none" stroke="#8656CF" stroke-width="12" stroke-linecap="round" stroke-linejoin="round" opacity=".42" stroke-dasharray="22 20"/><circle cx="346" cy="335" r="44" fill="#FFF9F2" stroke="#211923" stroke-width="7" stroke-linecap="round" stroke-linejoin="round"/><circle cx="346" cy="335" r="24" fill="#39B9B2"/><g transform="translate(404 241) rotate(-3)"><rect width="190" height="140" rx="17" fill="#FFF9F2" stroke="#211923" stroke-width="7" stroke-linecap="round" stroke-linejoin="round"/><rect x="19" y="14" width="152" height="70" rx="11" fill="#39B9B2"/><path d="M23 106h99" stroke="#211923" stroke-width="7" stroke-linecap="round" stroke-linejoin="round"/><path d="M23 123h65" stroke="#211923" stroke-width="5" stroke-linecap="round" stroke-linejoin="round" opacity=".55"/></g><circle cx="826" cy="486" r="44" fill="#FFF9F2" stroke="#211923" stroke-width="7" stroke-linecap="round" stroke-linejoin="round"/><circle cx="826" cy="486" r="24" fill="#508BF0"/><circle cx="1325" cy="335" r="44" fill="#FFF9F2" stroke="#211923" stroke-width="7" stroke-linecap="round" stroke-linejoin="round"/><circle cx="1325" cy="335" r="24" fill="#E45CA4"/><g transform="translate(1383 241) rotate(3)"><rect width="190" height="140" rx="17" fill="#FFF9F2" stroke="#211923" stroke-width="7" stroke-linecap="round" stroke-linejoin="round"/><rect x="19" y="14" width="152" height="70" rx="11" fill="#E45CA4"/><path d="M23 106h99" stroke="#211923" stroke-width="7" stroke-linecap="round" stroke-linejoin="round"/><path d="M23 123h65" stroke="#211923" stroke-width="5" stroke-linecap="round" stroke-linejoin="round" opacity=".55"/></g><circle cx="1594" cy="637" r="44" fill="#FFF9F2" stroke="#211923" stroke-width="7" stroke-linecap="round" stroke-linejoin="round"/><circle cx="1594" cy="637" r="24" fill="#F1B640"/><circle cx="595" cy="734" r="44" fill="#FFF9F2" stroke="#211923" stroke-width="7" stroke-linecap="round" stroke-linejoin="round"/><circle cx="595" cy="734" r="24" fill="#4BCB83"/><g transform="translate(653 640) rotate(3)"><rect width="190" height="140" rx="17" fill="#FFF9F2" stroke="#211923" stroke-width="7" stroke-linecap="round" stroke-linejoin="round"/><rect x="19" y="14" width="152" height="70" rx="11" fill="#4BCB83"/><path d="M23 106h99" stroke="#211923" stroke-width="7" stroke-linecap="round" stroke-linejoin="round"/><path d="M23 123h65" stroke="#211923" stroke-width="5" stroke-linecap="round" stroke-linejoin="round" opacity=".55"/></g></svg>
