<svg xmlns="http://www.w3.org/2000/svg" width="2048" height="2732" viewBox="0 0 2048 2732" role="img" aria-label="Ghost Wake dark splash"><rect width="2048" height="2732" fill="#070A15"/><path d="M0 2040c330-150 680-110 1024 8 330 114 676 104 1024-24v708H0Z" fill="#11152A" stroke="#27243D" stroke-width="10" stroke-linecap="round" stroke-linejoin="round"/><path d="M0 2100c340-126 690-92 1024 18 328 108 684 88 1024-22" fill="none" stroke="#8656CF" stroke-width="15" stroke-linecap="round" stroke-linejoin="round" opacity=".36"/><path d="M 614 1700 A 410 410 0 0 1 1434 1700" fill="none" stroke="#39B9B2" stroke-width="16" stroke-linecap="round" stroke-linejoin="round" opacity="0.35"/><path d="M 724 1700 A 300 300 0 0 1 1324 1700" fill="none" stroke="#E45CA4" stroke-width="12" stroke-linecap="round" stroke-linejoin="round" opacity="0.25"/><circle cx="1024" cy="1720" r="184" fill="#F3E5C4" stroke="#211923" stroke-width="10" stroke-linecap="round" stroke-linejoin="round"/><path d="M1024 1590c30 34 12 58-17 70 54-9 94 25 102 73 20-21 43-29 67-24-22 23-28 47-18 73 25-8 46-3 63 15-24 10-36 30-35 58H862c1-28-10-48-35-58 18-18 39-23 64-15 9-26 3-50-19-73 25-5 47 3 67 24 8-48 49-82 103-73-29-12-47-36-18-70Z" fill="#FFF9F2" stroke="#211923" stroke-width="12" stroke-linecap="round" stroke-linejoin="round"/><circle cx="984" cy="1715" r="25" fill="#211923"/><circle cx="1064" cy="1715" r="25" fill="#211923"/><path d="M1004 1780c13 14 27 14 40 0" fill="none" stroke="#211923" stroke-width="8" stroke-linecap="round" stroke-linejoin="round"/><circle cx="450" cy="1400" r="7" fill="#F1B640"/><circle cx="1580" cy="1380" r="6" fill="#39B9B2"/></svg>
